<?xml version="1.0" standalone="no"?>
<!DOCTYPE svg PUBLIC "-//W3C//DTD SVG 20010904//EN"
 "http://www.w3.org/TR/2001/REC-SVG-20010904/DTD/svg10.dtd">
<svg version="1.0" xmlns="http://www.w3.org/2000/svg"
 width="70.000000pt" height="70.000000pt" viewBox="0 0 70.000000 70.000000"
 preserveAspectRatio="xMidYMid meet">
<metadata>
Created by potrace 1.11, written by Peter Selinger 2001-2013
</metadata>
<g transform="translate(0.000000,70.000000) scale(0.100000,-0.100000)"
fill="#000000" stroke="none">
<path d="M284 646 c-142 -35 -252 -162 -229 -265 9 -43 39 -61 103 -61 54 0
54 0 47 -28 -3 -15 -17 -54 -31 -88 -29 -73 -30 -108 -5 -133 28 -28 69 -33
219 -29 122 3 132 5 156 27 14 14 26 32 26 42 0 9 -16 60 -35 113 l-35 96 60
0 c78 0 100 19 100 88 0 154 -202 282 -376 238z"/>
</g>
</svg>
